<svg width="304" height="270" viewBox="0 0 304 270" fill="none" xmlns="http://www.w3.org/2000/svg">
<path opacity="0.2" d="M150.5 218L243 64H58L150.5 218Z" stroke="black" stroke-width="10"/>
<path d="M53.189 109.63C82.5645 109.63 106.378 85.0885 106.378 54.815C106.378 24.5415 82.5645 0 53.189 0C23.8135 0 0 24.5415 0 54.815C0 85.0885 23.8135 109.63 53.189 109.63Z" fill="#2745C0"/>
<path d="M53.189 104.77C82.5645 104.77 106.378 81.3164 106.378 52.385C106.378 23.4536 82.5645 0 53.189 0C23.8135 0 0 23.4536 0 52.385C0 81.3164 23.8135 104.77 53.189 104.77Z" fill="url(#paint0_linear_22_296)"/>
<path d="M53.1894 94.509C75.7403 94.509 94.0214 76.133 94.0214 53.465C94.0214 30.797 75.7403 12.421 53.1894 12.421C30.6385 12.421 12.3574 30.797 12.3574 53.465C12.3574 76.133 30.6385 94.509 53.1894 94.509Z" fill="#E1E4ED"/>
<path d="M69.0545 42.838C68.7674 42.7242 68.4589 42.6744 68.1505 42.692C67.7335 42.722 67.3955 42.893 67.1955 43.173C66.0185 44.839 65.0545 47.983 64.2765 50.51C63.9195 51.679 63.4405 53.243 63.0935 53.985C62.7315 51.905 63.1405 44.288 63.2995 41.355L63.3015 41.308C63.4115 39.27 63.4265 38.912 63.4015 38.755C63.2275 37.637 62.7835 36.903 62.0825 36.575C61.3745 36.242 60.4535 36.389 59.4625 36.992C58.9655 37.295 58.8275 38.337 58.4015 43.059L58.3995 43.079C58.1645 45.674 57.6235 51.647 56.9585 52.642C56.2085 51.25 55.1745 43.342 54.7285 39.92C54.4165 37.523 54.2345 36.146 54.1125 35.73C53.8555 34.86 52.7695 34.119 51.6945 34.077C50.7995 34.033 50.0655 34.492 49.7145 35.291C49.0595 36.027 49.2915 38.47 50.0165 44.255C50.3605 47.009 51.0725 52.696 50.6245 53.335C49.7315 53.236 48.1975 49.674 46.0655 42.743C45.4675 40.801 45.2825 40.218 45.0985 39.963C44.7365 39.072 43.5055 38.385 42.4025 38.463C42.3095 38.4694 42.217 38.4814 42.1255 38.499C41.5475 38.615 40.2295 39.152 40.5105 41.629C41.2895 45.064 42.1345 47.586 42.9555 50.034L42.9715 50.084C43.4625 51.549 43.9265 52.934 44.3585 54.472C45.3745 58.102 44.9795 60.354 44.9745 60.379C44.9405 60.611 44.8695 60.753 44.7635 60.802C44.7183 60.8216 44.6698 60.8328 44.6205 60.835C44.2985 60.858 43.8155 60.642 43.5655 60.502C42.9975 59.404 40.1655 54.172 37.5985 53.447L37.5075 53.421L37.4145 53.429C36.4725 53.519 35.7805 53.879 35.3575 54.497C34.6875 55.475 34.9645 56.721 35.0325 56.971L35.0705 57.061C35.0905 57.098 37.1495 60.886 37.4675 62.648C37.7425 64.159 39.1635 65.796 40.3055 67.112L40.3525 67.166C40.7255 67.596 41.0475 67.968 41.3005 68.312C44.6165 71.804 49.8585 74.74 49.9015 74.764C50.5555 75.251 50.9195 75.722 50.9575 76.127C50.9757 76.2801 50.9337 76.4342 50.8405 76.557L50.7265 76.677L51.4515 77.388L65.2835 76.408L65.8735 73.678C67.6965 65.973 67.3155 59.403 67.3095 59.359C67.3165 59.117 67.8275 56.779 68.2395 54.891L68.2505 54.843C69.0705 51.08 70.0885 46.399 70.2845 44.618C70.3695 43.857 69.8865 43.157 69.0545 42.838Z" fill="#3C4262"/>
<path d="M249.686 109.63C279.336 109.63 303.372 85.0885 303.372 54.815C303.372 24.5415 279.336 0 249.686 0C220.036 0 196 24.5415 196 54.815C196 85.0885 220.036 109.63 249.686 109.63Z" fill="#C76C1D"/>
<path d="M249.686 104.77C279.336 104.77 303.372 81.3164 303.372 52.385C303.372 23.4536 279.336 0 249.686 0C220.036 0 196 23.4536 196 52.385C196 81.3164 220.036 104.77 249.686 104.77Z" fill="url(#paint1_linear_22_296)"/>
<path d="M249.687 94.509C272.449 94.509 290.901 76.133 290.901 53.465C290.901 30.797 272.449 12.421 249.687 12.421C226.925 12.421 208.473 30.797 208.473 53.465C208.473 76.133 226.925 94.509 249.687 94.509Z" fill="#E1E4ED"/>
<path d="M238.927 53.1131L243.378 46.8791C241.528 46.5721 238.13 46.5041 235.347 49.2761C230.959 53.6461 229.183 63.0851 228.812 65.3691L239.962 76.4741C241.97 76.3041 250.859 75.1211 259.423 66.5931C259.513 66.4091 261.6 64.8731 259.894 63.1751C259.08 62.3651 257.732 62.3791 256.901 63.2081C256.804 63.3083 256.688 63.3882 256.56 63.4433C256.432 63.4983 256.294 63.5274 256.155 63.5288C256.016 63.5302 255.878 63.5039 255.749 63.4514C255.62 63.3989 255.502 63.3213 255.403 63.2231C255.305 63.1252 255.227 63.0085 255.174 62.88C255.122 62.7515 255.095 62.6138 255.097 62.4749C255.098 62.336 255.127 62.1988 255.183 62.0714C255.238 61.944 255.318 61.829 255.418 61.7331L258.444 58.7191C259.982 57.1871 258.534 54.6031 256.387 55.2241L253.91 57.3361C253.697 57.5199 253.42 57.6123 253.14 57.593C252.859 57.5737 252.598 57.4443 252.412 57.2331C252.028 56.7901 252.111 56.1191 252.548 55.7411C261.202 48.1791 259.938 49.0911 265.506 43.8931C267.586 42.1681 264.969 39.1171 262.919 40.8631L249.451 52.9271C249.258 53.091 249.012 53.1797 248.759 53.1769C248.506 53.1742 248.262 53.0801 248.072 52.9121C247.627 52.5291 247.618 51.9781 247.909 51.5421L257.304 36.9971C258.677 35.1451 255.974 33.0871 254.528 34.9551L240.637 54.3021C240.557 54.4159 240.456 54.5128 240.339 54.5873C240.222 54.6618 240.091 54.7124 239.955 54.7361C239.818 54.7598 239.678 54.7562 239.543 54.7254C239.407 54.6947 239.28 54.6375 239.167 54.5571C239.054 54.4793 238.959 54.3799 238.886 54.2646C238.813 54.1493 238.764 54.0205 238.741 53.8858C238.719 53.7512 238.724 53.6134 238.755 53.4807C238.787 53.3479 238.846 53.2229 238.927 53.1131Z" fill="#3C4262"/>
<path d="M151.686 269.63C181.336 269.63 205.372 245.088 205.372 214.815C205.372 184.542 181.336 160 151.686 160C122.036 160 98 184.542 98 214.815C98 245.088 122.036 269.63 151.686 269.63Z" fill="#9C1734"/>
<path d="M151.686 264.77C181.336 264.77 205.372 241.316 205.372 212.385C205.372 183.454 181.336 160 151.686 160C122.036 160 98 183.454 98 212.385C98 241.316 122.036 264.77 151.686 264.77Z" fill="url(#paint2_linear_22_296)"/>
<path d="M151.687 254.509C174.449 254.509 192.901 236.133 192.901 213.465C192.901 190.797 174.449 172.421 151.687 172.421C128.925 172.421 110.473 190.797 110.473 213.465C110.473 236.133 128.925 254.509 151.687 254.509Z" fill="#E1E4ED"/>
<path d="M167.651 207.571C167.176 201.574 160.443 202.186 160.443 202.186C157.601 197.176 153.162 200.805 153.162 200.805C149.752 195.894 145.475 200.445 145.475 200.445C138.102 199.649 138.388 205.679 138.388 205.679C138.215 207.596 139.428 213.526 139.428 213.526C138.334 210.108 135.961 212.945 135.961 212.945C133.044 217.447 135.24 219.912 135.24 219.912C139.187 224.538 147.597 230.092 147.597 230.092C150.643 231.837 149.354 233.392 149.354 233.392L167.774 230.348L168.198 226.854C170.998 218.382 167.651 207.57 167.651 207.57V207.571Z" fill="#3C4262"/>
<defs>
<linearGradient id="paint0_linear_22_296" x1="5318.9" y1="0" x2="5318.9" y2="10477" gradientUnits="userSpaceOnUse">
<stop stop-color="#5571F3"/>
<stop offset="1" stop-color="white" stop-opacity="0"/>
</linearGradient>
<linearGradient id="paint1_linear_22_296" x1="5564.6" y1="0" x2="5564.6" y2="10477" gradientUnits="userSpaceOnUse">
<stop stop-color="#ECA822"/>
<stop offset="1" stop-color="white" stop-opacity="0"/>
</linearGradient>
<linearGradient id="paint2_linear_22_296" x1="5466.6" y1="160" x2="5466.6" y2="10637" gradientUnits="userSpaceOnUse">
<stop stop-color="#DD3051"/>
<stop offset="1" stop-color="white" stop-opacity="0"/>
</linearGradient>
</defs>
</svg>
