<svg width="37" height="44" viewBox="0 0 37 44" fill="none" xmlns="http://www.w3.org/2000/svg">
<path d="M35.0545 8.838C34.7674 8.72421 34.4589 8.67439 34.1505 8.692C33.7335 8.722 33.3955 8.893 33.1955 9.173C32.0185 10.839 31.0545 13.983 30.2765 16.51C29.9195 17.679 29.4405 19.243 29.0935 19.985C28.7315 17.905 29.1405 10.288 29.2995 7.355L29.3015 7.308C29.4115 5.27 29.4265 4.912 29.4015 4.755C29.2275 3.637 28.7835 2.903 28.0825 2.575C27.3745 2.242 26.4535 2.389 25.4625 2.992C24.9655 3.295 24.8275 4.337 24.4015 9.059L24.3995 9.079C24.1645 11.674 23.6235 17.647 22.9585 18.642C22.2085 17.25 21.1745 9.342 20.7285 5.92C20.4165 3.523 20.2345 2.146 20.1125 1.73C19.8555 0.859997 18.7695 0.118997 17.6945 0.0769971C16.7995 0.0329971 16.0655 0.491998 15.7145 1.291C15.0595 2.027 15.2915 4.47 16.0165 10.255C16.3605 13.009 17.0725 18.696 16.6245 19.335C15.7315 19.236 14.1975 15.674 12.0655 8.743C11.4675 6.801 11.2825 6.218 11.0985 5.963C10.7365 5.072 9.50552 4.385 8.40252 4.463C8.30954 4.46941 8.21704 4.48143 8.12552 4.499C7.54752 4.615 6.22952 5.152 6.51052 7.629C7.28952 11.064 8.13452 13.586 8.95552 16.034L8.97152 16.084C9.46252 17.549 9.92652 18.934 10.3585 20.472C11.3745 24.102 10.9795 26.354 10.9745 26.379C10.9405 26.611 10.8695 26.753 10.7635 26.802C10.7183 26.8216 10.6698 26.8328 10.6205 26.835C10.2985 26.858 9.81552 26.642 9.56552 26.502C8.99752 25.404 6.16552 20.172 3.59852 19.447L3.50752 19.421L3.41452 19.429C2.47252 19.519 1.78052 19.879 1.35752 20.497C0.687517 21.475 0.964516 22.721 1.03252 22.971L1.07052 23.061C1.09052 23.098 3.14952 26.886 3.46752 28.648C3.74252 30.159 5.16352 31.796 6.30552 33.112L6.35252 33.166C6.72552 33.596 7.04752 33.968 7.30052 34.312C10.6165 37.804 15.8585 40.74 15.9015 40.764C16.5555 41.251 16.9195 41.722 16.9575 42.127C16.9757 42.2801 16.9337 42.4342 16.8405 42.557L16.7265 42.677L17.4515 43.388L31.2835 42.408L31.8735 39.678C33.6965 31.973 33.3155 25.403 33.3095 25.359C33.3165 25.117 33.8275 22.779 34.2395 20.891L34.2505 20.843C35.0705 17.08 36.0885 12.399 36.2845 10.618C36.3695 9.857 35.8865 9.157 35.0545 8.838Z" fill="#3C4262"/>
</svg>
