<svg width="39" height="43" viewBox="0 0 39 43" fill="none" xmlns="http://www.w3.org/2000/svg">
<path d="M10.9275 19.1131L15.3785 12.8791C13.5285 12.5721 10.1305 12.5041 7.3475 15.2761C2.9595 19.6461 1.1825 29.0851 0.8125 31.3691L11.9625 42.4741C13.9705 42.3041 22.8585 41.1211 31.4225 32.5931C31.5125 32.4091 33.5995 30.8731 31.8935 29.1751C31.0795 28.3651 29.7315 28.3791 28.9005 29.2081C28.8037 29.3083 28.688 29.3882 28.56 29.4433C28.4321 29.4983 28.2944 29.5274 28.1551 29.5288C28.0158 29.5302 27.8777 29.5039 27.7486 29.4514C27.6196 29.3989 27.5023 29.3213 27.4035 29.2231C27.305 29.1252 27.2271 29.0085 27.1744 28.88C27.1217 28.7515 27.0952 28.6138 27.0966 28.4749C27.098 28.336 27.1272 28.1988 27.1825 28.0714C27.2378 27.944 27.318 27.829 27.4185 27.7331L30.4445 24.7191C31.9825 23.1871 30.5335 20.6031 28.3865 21.2241L25.9095 23.3361C25.6969 23.5199 25.4202 23.6123 25.1398 23.593C24.8594 23.5737 24.5979 23.4443 24.4125 23.2331C24.0285 22.7901 24.1105 22.1191 24.5475 21.7411C33.2015 14.1791 31.9375 15.0911 37.5055 9.89307C39.5855 8.16807 36.9695 5.11707 34.9195 6.86307L21.4505 18.9271C21.2575 19.091 21.0119 19.1797 20.7587 19.1769C20.5055 19.1742 20.2619 19.0801 20.0725 18.9121C19.6275 18.5291 19.6175 17.9781 19.9085 17.5421L29.3035 2.99707C30.6765 1.14507 27.9735 -0.91293 26.5275 0.95507L12.6365 20.3021C12.5572 20.4159 12.456 20.5128 12.339 20.5873C12.222 20.6618 12.0914 20.7124 11.9547 20.7361C11.818 20.7598 11.678 20.7562 11.5427 20.7254C11.4074 20.6947 11.2795 20.6375 11.1665 20.5571C11.0543 20.4793 10.9588 20.3799 10.8858 20.2646C10.8127 20.1493 10.7635 20.0205 10.7411 19.8858C10.7187 19.7512 10.7236 19.6134 10.7555 19.4807C10.7873 19.3479 10.8465 19.2229 10.9275 19.1131Z" fill="#3C4262"/>
</svg>
